<svg xmlns="http://www.w3.org/2000/svg" xmlns:xlink="http://www.w3.org/1999/xlink" width="2000" zoomAndPan="magnify" viewBox="0 0 1500 1499.999933" height="2000" preserveAspectRatio="xMidYMid meet" version="1.0"><defs><g/><clipPath id="0b7475ded8"><path d="M 527 6 L 1414.679688 6 L 1414.679688 1241 L 527 1241 Z M 527 6 " clip-rule="nonzero"/></clipPath><clipPath id="f6d059f330"><rect x="0" width="888" y="0" height="1235"/></clipPath><clipPath id="a01d9a75ac"><path d="M 0.121094 0 L 614 0 L 614 1427.761719 L 0.121094 1427.761719 Z M 0.121094 0 " clip-rule="nonzero"/></clipPath><clipPath id="79f9a7e54b"><rect x="0" width="614" y="0" height="1428"/></clipPath><clipPath id="dca8c25625"><rect x="0" width="1415" y="0" height="1428"/></clipPath></defs><g transform="matrix(1, 0, 0, 1, 45, 0.000000000000112861)"><g clip-path="url(#dca8c25625)"><g clip-path="url(#0b7475ded8)"><g transform="matrix(1, 0, 0, 1, 527, 6)"><g clip-path="url(#f6d059f330)"><g fill="#ffffff" fill-opacity="1"><g transform="translate(3.789169, 887.897711)"><g><path d="M 237.144531 -4.777344 C 366.785156 40.261719 463.84375 70.804688 528.308594 86.84375 C 591.601562 102.59375 645.691406 110.46875 690.570312 110.46875 C 734.492188 110.46875 783.25 100.273438 836.84375 79.886719 L 854.902344 73.011719 L 881.65625 115.820312 L 863.128906 128.574219 C 784.472656 182.730469 704.777344 209.808594 624.039062 209.808594 C 542.71875 209.808594 450.878906 184.851562 348.515625 134.933594 C 272.304688 97.132812 225.210938 74.339844 207.226562 66.546875 C 144.535156 38.421875 93.699219 24.078125 54.722656 23.515625 L 31.546875 23.179688 L 31.546875 -32.695312 L 66.992188 -32.695312 C 76.53125 -32.695312 84.675781 -35.980469 91.429688 -42.550781 C 98.246094 -49.183594 101.84375 -57.621094 102.222656 -67.863281 L 125.726562 -66.992188 L 102.207031 -66.992188 L 102.207031 -575.398438 L 125.726562 -575.398438 L 102.226562 -574.496094 C 101.851562 -584.261719 98.175781 -592.632812 91.199219 -599.609375 C 84.476562 -606.335938 76.40625 -609.699219 66.992188 -609.699219 L 31.546875 -609.699219 L 31.546875 -665.910156 L 279.554688 -665.910156 L 279.554688 -609.699219 L 244.109375 -609.699219 C 234.574219 -609.699219 226.277344 -606.261719 219.21875 -599.386719 C 212.335938 -592.6875 208.894531 -584.691406 208.894531 -575.398438 L 208.894531 -45.886719 C 208.894531 -36.503906 209.335938 -29.707031 210.222656 -25.492188 C 210.5625 -23.882812 212.648438 -20.984375 216.476562 -16.808594 C 220.613281 -12.296875 227.609375 -8.246094 237.460938 -4.664062 Z M 221.390625 39.539062 C 204.324219 33.332031 191.128906 25.144531 181.804688 14.972656 C 172.175781 4.46875 166.308594 -5.792969 164.199219 -15.804688 C 162.640625 -23.214844 161.859375 -33.242188 161.859375 -45.886719 L 161.859375 -575.398438 C 161.859375 -597.921875 170.042969 -617.152344 186.40625 -633.085938 C 202.597656 -648.851562 221.832031 -656.730469 244.109375 -656.730469 L 256.039062 -656.730469 L 256.039062 -633.214844 L 232.523438 -633.214844 L 232.523438 -642.390625 L 256.039062 -642.390625 L 256.039062 -618.875 L 55.0625 -618.875 L 55.0625 -642.390625 L 78.578125 -642.390625 L 78.578125 -633.214844 L 55.0625 -633.214844 L 55.0625 -656.730469 L 66.992188 -656.730469 C 89.394531 -656.730469 108.546875 -648.777344 124.457031 -632.867188 C 140.121094 -617.203125 148.375 -598.347656 149.226562 -576.304688 L 149.242188 -575.851562 L 149.242188 -66.558594 L 149.226562 -66.121094 C 148.382812 -43.328125 140.050781 -24.234375 124.230469 -8.839844 C 108.347656 6.613281 89.269531 14.339844 66.992188 14.339844 L 55.0625 14.339844 L 55.0625 -9.175781 L 78.578125 -9.175781 L 78.578125 0 L 55.0625 0 L 55.402344 -23.515625 C 100.855469 -22.855469 157.695312 -7.222656 225.929688 23.390625 C 244.652344 31.503906 292.386719 54.59375 369.128906 92.65625 C 464.988281 139.402344 549.957031 162.777344 624.039062 162.777344 C 695.027344 162.777344 765.832031 138.464844 836.457031 89.835938 L 849.792969 109.207031 L 829.851562 121.671875 L 825.261719 114.328125 L 845.203125 101.863281 L 853.566406 123.84375 C 794.585938 146.28125 740.253906 157.5 690.570312 157.5 C 641.847656 157.5 583.972656 149.164062 516.953125 132.488281 C 451.105469 116.101562 352.691406 85.15625 221.707031 39.652344 Z M 221.390625 39.539062 "/></g></g></g><g fill="#e1b500" fill-opacity="1"><g transform="translate(3.789169, 887.897711)"><g><path d="M 229.421875 17.4375 C 359.734375 62.707031 457.46875 93.445312 522.625 109.65625 C 587.789062 125.875 643.773438 133.984375 690.578125 133.984375 C 737.378906 133.984375 788.921875 123.273438 845.203125 101.859375 L 849.796875 109.203125 C 775.148438 160.597656 699.894531 186.296875 624.03125 186.296875 C 546.332031 186.296875 457.929688 162.128906 358.828125 113.796875 C 282.347656 75.859375 234.929688 52.914062 216.578125 44.96875 C 151.117188 15.601562 97.28125 0.613281 55.0625 0 L 55.0625 -9.171875 L 67 -9.171875 C 82.90625 -9.171875 96.515625 -14.675781 107.828125 -25.6875 C 119.148438 -36.707031 125.113281 -50.476562 125.71875 -67 L 125.71875 -575.40625 C 125.113281 -591.3125 119.148438 -604.921875 107.828125 -616.234375 C 96.515625 -627.554688 82.90625 -633.21875 67 -633.21875 L 55.0625 -633.21875 L 55.0625 -642.390625 L 256.046875 -642.390625 L 256.046875 -633.21875 L 244.109375 -633.21875 C 228.203125 -633.21875 214.4375 -627.554688 202.8125 -616.234375 C 191.1875 -604.921875 185.375 -591.3125 185.375 -575.40625 L 185.375 -45.890625 C 185.375 -34.867188 185.984375 -26.453125 187.203125 -20.640625 C 188.429688 -14.835938 192.410156 -8.265625 199.140625 -0.921875 C 205.867188 6.421875 215.960938 12.539062 229.421875 17.4375 Z M 229.421875 17.4375 "/></g></g></g></g></g></g><g clip-path="url(#a01d9a75ac)"><g transform="matrix(1, 0, 0, 1, -0.000000000000007105, 0.000000000000112861)"><g clip-path="url(#79f9a7e54b)"><g fill="#ffffff" fill-opacity="1"><g transform="translate(0.287029, 1007.820514)"><g><path d="M 148.242188 -283.367188 C 112.480469 -236.597656 94.597656 -186.222656 94.597656 -132.242188 C 94.597656 -69.839844 120.839844 -21.367188 173.320312 13.179688 C 204.121094 33.933594 239.140625 44.3125 278.375 44.3125 C 318.351562 44.3125 352.78125 36.585938 381.671875 21.132812 C 435.382812 -6.71875 465.578125 -53.703125 472.257812 -119.820312 L 472.300781 -120.234375 L 472.359375 -120.644531 C 472.964844 -124.886719 473.265625 -129.121094 473.265625 -133.355469 C 473.265625 -157.726562 466.328125 -184.472656 452.445312 -213.589844 C 438.617188 -242.59375 415.90625 -269.460938 384.3125 -294.1875 L 184.222656 -452.035156 C 135.398438 -490.101562 110.988281 -539.453125 110.988281 -600.09375 C 110.988281 -659.457031 130.199219 -709.78125 168.617188 -751.058594 C 207.421875 -792.753906 259.378906 -813.597656 324.496094 -813.597656 C 355.542969 -813.597656 389.167969 -809.746094 425.367188 -802.046875 L 421.175781 -782.34375 L 421.175781 -802.488281 L 485.445312 -802.488281 L 488.324219 -625.511719 L 437.011719 -625.511719 L 436.597656 -645.234375 C 435.988281 -674.617188 425.660156 -697.535156 405.617188 -713.988281 C 384.515625 -731.3125 357.65625 -739.976562 325.050781 -739.976562 C 293.140625 -739.976562 266.550781 -729.496094 245.285156 -708.542969 C 224.097656 -687.667969 213.507812 -660.59375 213.507812 -627.320312 C 213.507812 -594.902344 227.269531 -567.742188 254.800781 -545.847656 L 460.324219 -383.648438 C 546.929688 -315.152344 590.230469 -232.089844 590.230469 -134.464844 C 590.230469 -60.34375 560.980469 3.164062 502.472656 56.058594 C 451.96875 101.753906 385.230469 124.601562 302.269531 124.601562 C 251.796875 124.601562 206.664062 115.050781 166.867188 95.949219 C 91.046875 60.460938 45.484375 0.0273438 30.179688 -85.347656 C 27.746094 -98.324219 26.53125 -114.511719 26.53125 -133.910156 C 26.53125 -154.214844 32.054688 -181.136719 43.101562 -214.667969 C 54.390625 -248.945312 75.855469 -283.089844 107.492188 -317.101562 L 120.050781 -330.601562 L 160.378906 -299.234375 Z M 116.242188 -307.835938 L 132.242188 -295.601562 L 119.875 -279.703125 L 109.875 -287.480469 L 122.242188 -303.378906 L 136.988281 -289.660156 C 109.359375 -259.957031 90.816406 -230.757812 81.363281 -202.0625 C 71.664062 -172.625 66.816406 -149.90625 66.816406 -133.910156 C 66.816406 -117.007812 67.824219 -103.1875 69.835938 -92.457031 C 82.683594 -20.769531 120.839844 29.925781 184.300781 59.628906 C 218.585938 76.089844 257.910156 84.316406 302.269531 84.316406 C 374.886719 84.316406 432.613281 64.9375 475.457031 26.175781 C 525.117188 -18.722656 549.945312 -72.269531 549.945312 -134.464844 C 549.945312 -219.089844 511.753906 -291.609375 435.367188 -352.023438 L 229.71875 -514.320312 C 192.054688 -544.28125 173.222656 -581.949219 173.222656 -627.320312 C 173.222656 -671.835938 187.816406 -708.476562 217.011719 -737.238281 C 246.121094 -765.917969 282.132812 -780.261719 325.050781 -780.261719 C 367.269531 -780.261719 402.644531 -768.550781 431.179688 -745.125 C 460.773438 -720.832031 476.007812 -687.816406 476.875 -646.074219 L 456.738281 -645.65625 L 456.738281 -665.796875 L 467.851562 -665.796875 L 467.851562 -645.65625 L 447.710938 -645.328125 L 445.488281 -782.015625 L 465.628906 -782.34375 L 465.628906 -762.199219 L 419.058594 -762.199219 L 416.984375 -762.640625 C 383.546875 -769.757812 352.714844 -773.3125 324.496094 -773.3125 C 271.074219 -773.3125 228.945312 -756.746094 198.105469 -723.613281 C 166.886719 -690.066406 151.273438 -648.894531 151.273438 -600.09375 C 151.273438 -552.570312 170.574219 -513.757812 209.171875 -483.664062 L 409.140625 -325.910156 C 445.707031 -297.292969 472.265625 -265.632812 488.8125 -230.925781 C 505.304688 -196.328125 513.550781 -163.804688 513.550781 -133.355469 C 513.550781 -127.214844 513.113281 -121.078125 512.238281 -114.949219 L 492.296875 -117.796875 L 512.339844 -115.773438 C 504.199219 -35.199219 466.976562 22.277344 400.671875 56.65625 C 365.847656 75.285156 325.082031 84.597656 278.375 84.597656 C 230.933594 84.597656 188.53125 72.007812 151.171875 46.828125 C 86.601562 4.324219 54.3125 -55.363281 54.3125 -132.242188 C 54.3125 -195.316406 74.957031 -253.847656 116.242188 -307.835938 Z M 116.242188 -307.835938 "/></g></g></g><g fill="#e1b500" fill-opacity="1"><g transform="translate(0.287029, 1007.820514)"><g><path d="M 132.25 -295.59375 C 93.71875 -245.21875 74.453125 -190.769531 74.453125 -132.25 C 74.453125 -62.601562 103.71875 -8.519531 162.25 30 C 196.320312 52.96875 235.03125 64.453125 278.375 64.453125 C 321.71875 64.453125 359.316406 55.929688 391.171875 38.890625 C 451.179688 7.773438 484.890625 -44.453125 492.296875 -117.796875 C 493.035156 -122.984375 493.40625 -128.171875 493.40625 -133.359375 C 493.40625 -160.765625 485.8125 -190.394531 470.625 -222.25 C 455.4375 -254.113281 430.804688 -283.378906 396.734375 -310.046875 L 196.703125 -467.84375 C 152.984375 -501.925781 131.125 -546.007812 131.125 -600.09375 C 131.125 -654.175781 148.535156 -699.921875 183.359375 -737.328125 C 218.179688 -774.742188 265.226562 -793.453125 324.5 -793.453125 C 354.132812 -793.453125 386.359375 -789.75 421.171875 -782.34375 L 465.625 -782.34375 L 467.84375 -645.65625 L 456.734375 -645.65625 C 455.992188 -681.21875 443.210938 -709.179688 418.390625 -729.546875 C 393.578125 -749.921875 362.460938 -760.109375 325.046875 -760.109375 C 287.640625 -760.109375 256.335938 -747.695312 231.140625 -722.875 C 205.953125 -698.0625 193.359375 -666.207031 193.359375 -627.3125 C 193.359375 -588.414062 209.660156 -556.003906 242.265625 -530.078125 L 447.84375 -367.828125 C 529.34375 -303.378906 570.09375 -225.59375 570.09375 -134.46875 C 570.09375 -66.3125 543.050781 -7.78125 488.96875 41.125 C 442.289062 83.34375 380.054688 104.453125 302.265625 104.453125 C 254.847656 104.453125 212.617188 95.566406 175.578125 77.796875 C 105.941406 45.191406 64.082031 -10.375 50 -88.90625 C 47.78125 -100.757812 46.671875 -115.757812 46.671875 -133.90625 C 46.671875 -152.0625 51.859375 -176.878906 62.234375 -208.359375 C 72.609375 -239.847656 92.609375 -271.519531 122.234375 -303.375 Z M 132.25 -295.59375 "/></g></g></g></g></g></g></g></g></svg>